<!DOCTYPE svg PUBLIC "-//W3C//DTD SVG 1.1//EN" "http://www.w3.org/Graphics/SVG/1.1/DTD/svg11.dtd">

<!-- Uploaded to: SVG Repo, www.svgrepo.com, Transformed by: SVG Repo Mixer Tools -->
<svg width="20px" height="20px" viewBox="0 0 24 24" fill="none" xmlns="http://www.w3.org/2000/svg">

<g id="SVGRepo_bgCarrier" stroke-width="0"/>

<g id="SVGRepo_tracerCarrier" stroke-linecap="round" stroke-linejoin="round" stroke="#f1c324" stroke-width="0.43200000000000005">

<path fill-rule="evenodd" clip-rule="evenodd" d="M12 22c5.523 0 10-4.477 10-10S17.523 2 12 2 2 6.477 2 12s4.477 10 10 10zm6.32-5.094A8 8 0 0 0 7.094 5.68L18.32 16.905zm-1.414 1.414L5.68 7.094A8 8 0 0 0 16.906 18.32z" fill="#f1c324"/>

</g>

<g id="SVGRepo_iconCarrier">

<path fill-rule="evenodd" clip-rule="evenodd" d="M12 22c5.523 0 10-4.477 10-10S17.523 2 12 2 2 6.477 2 12s4.477 10 10 10zm6.32-5.094A8 8 0 0 0 7.094 5.68L18.32 16.905zm-1.414 1.414L5.68 7.094A8 8 0 0 0 16.906 18.32z" fill="#f1c324"/>

</g>

</svg>