<?xml version="1.0" encoding="utf-8"?>
<!-- Generator: Adobe Illustrator 23.0.2, SVG Export Plug-In . SVG Version: 6.00 Build 0)  -->
<svg version="1.1" id="Capa_1" xmlns="http://www.w3.org/2000/svg" xmlns:xlink="http://www.w3.org/1999/xlink" x="0px" y="0px"
	 viewBox="0 0 512 512" style="enable-background:new 0 0 512 512;" xml:space="preserve">
<style type="text/css">
	.st0{fill:#F1C324;}
</style>
<g>
	<g>
		<path class="st0" d="M356.9,63.8c-6.9-18.8-24.2-32.1-44.1-33.9c-26.5-39.9-87.1-39.9-113.6,0c-19.9,1.8-37.3,15.1-44.1,33.9
			c-20.3,8-33.3,25.1-33.3,44.4c0,23.7,20,43.6,46.4,48l30.7,77l-8,46.7c-0.7,4.1,2.1,8,6.1,8.6c4.1,0.7,8-2.1,8.6-6.1l8.3-48.8
			c0.2-1.4,0.1-2.8-0.4-4l-29-72.6c3.8-0.3,7.3-0.9,10.9-1.7c0,0,0,0,0.6,0.5l19.5,48.9c1.1,2.9,3.9,4.7,7,4.7h20.4
			c4.1,0,7.5-3.4,7.5-7.5v-35c3.6,0.4,7.4,0.5,11.1,0v35c0,4.1,3.4,7.5,7.5,7.5h20.4c3.1,0,5.8-1.9,7-4.7l19.5-48.9
			c0.1-0.1,0.6-0.5,0.6-0.5c3.6,0.9,7.1,1.5,10.8,1.7c-29.9,76-30,72.7-29.4,76.6l9.4,55.1h-30.7c-4.1,0-7.5,3.4-7.5,7.5
			s3.4,7.5,7.5,7.5h33.2l3.3,19.2h-53.1c-4.1,0-7.5,3.4-7.5,7.5s3.4,7.5,7.5,7.5h55.6L319,357h-31.3c-4.1,0-7.5,3.4-7.5,7.5
			s3.4,7.5,7.5,7.5h33.8c17.8,110.2,22,115.5,17.6,121c-2.4,3-7.5,3.7-9.8,3.9h-18.1c-4.1,0-7.5,3.4-7.5,7.5s3.4,7.5,7.5,7.5
			c8.4-0.9,28.8,4,39.6-9.5c4.4-5.6,5.9-12.9,4.4-21.7l-42.1-247.6l30.6-76.9c4.1-0.7,8-1.7,11.9-3.1c3.9-1.4,5.9-5.7,4.4-9.6
			s-5.7-5.9-9.6-4.4c-6.8,2.5-12.9,2.9-12.7,2.9c-18.8,1.8-23-6.4-28.8-0.2c-9,9.6-22,11.5-32.5,6.8c-5.2-2.3-6.5,1.6-15.1,3.2
			c-6.8,1.2-13.7,0-19.1-2.9c-5.5-3-7.4,2.2-18.1,2.2c-13.4,0-20.6-9-20.9-9.2c-0.1-0.1-3.2-3.6-7.8-2.1
			c-27.4,8.9-58.5-7.1-58.5-31.5c0-13.8,10.4-26.2,26.6-31.4c2.4-0.8,4.2-2.7,4.9-5.1c4.4-15.7,18.9-26.8,35.3-26.9
			c2.7,0,5.1-1.4,6.4-3.8c19.9-34.5,72-34.6,92,0c1.3,2.3,3.8,3.7,6.4,3.8c16.4,0.1,30.9,11.2,35.3,26.9c0.7,2.4,2.5,4.3,4.9,5.1
			c23.2,7.6,33.3,29.2,21.9,46.9c-2.3,3.5-1.3,8.1,2.2,10.4c3.5,2.3,8.1,1.3,10.4-2.2C398.6,107.8,388.2,76.1,356.9,63.8z
			 M276.5,164.4L276.5,164.4c6.3,1.7,12.9,2,19.5,0.8l-11.6,29.2h-7.8V164.4z M235.4,164.4v29.9h-7.8L216,165.1
			C222.6,166.4,229.3,166.1,235.4,164.4z"/>
	</g>
</g>
<g>
	<g>
		<path class="st0" d="M281.3,496.9c-103.8-0.4-104.7,1.5-108.5-2.6c-2.1-2.3-1.9-6.4-1.8-8.2c0-0.1,29.5-173.5,29.6-173.6l0,0
			c0.5-4-2.3-7.6-6.3-8.3c-3.9-0.6-7.6,1.9-8.5,5.8l0,0c0,0.1-29.6,174-29.7,174.3c-1.7,15.9,7.3,27.7,25.4,27.7h99.7
			c4.1,0,7.5-3.4,7.5-7.5C288.8,500.2,285.4,496.9,281.3,496.9z"/>
	</g>
</g>
</svg>
