<?xml version="1.0" encoding="utf-8"?>
<!-- Generator: Adobe Illustrator 23.0.2, SVG Export Plug-In . SVG Version: 6.00 Build 0)  -->
<svg version="1.1" id="Capa_1" xmlns="http://www.w3.org/2000/svg" xmlns:xlink="http://www.w3.org/1999/xlink" x="0px" y="0px"
	 viewBox="0 0 512 512" style="enable-background:new 0 0 512 512;" xml:space="preserve">
<style type="text/css">
	.st0{fill:#F1C324;}
</style>
<g>
	<g>
		<path class="st0" d="M274.5,316.6c-1.7-2.7-6.2-7-12-6.2c-5.1,0.7-8.8,4.7-11,12c-0.1,0.4-0.2,0.8-0.3,1.2
			c-1.5,11.6-8.7,20.4-16.9,20.4c-10.1,0-16.9-12.2-17.2-23.8c-0.1-4.3-3-9.6-8.2-10.9c-6.7-1.7-12.3,4.1-14.4,6.7
			c-0.2,0.2-0.3,0.4-0.5,0.7c-20.3,31.6,2.4,73.6,40.2,73.6C272.1,390.2,294.9,348.2,274.5,316.6z M234.3,375.2
			c-22.8,0-38.7-22.9-30.8-44.2c9.2,37.2,52.3,37.2,61.5,0C273,352.4,257.1,375.2,234.3,375.2z"/>
	</g>
</g>
<g>
	<g>
		<path class="st0" d="M471.5,86.6c-4.1-0.2-7.7,3-7.9,7.1c-0.8,15.6-6.4,30.3-16.2,42.5c-7,8.6-10.5,24.3-10.4,34
			c0.2,20.2-2.9,40.4-9,59.9c-8.7-12.9-18.3-25.6-28.8-38.1c-2.7-3.2-7.4-3.6-10.6-0.9c-3.2,2.7-3.6,7.4-0.9,10.6
			c12.6,15,24,30.5,33.8,45.9c-10.1,23.9-21.6,40.1-33.6,52c-54-88-147.6-162.4-238.3-210.5c14.8-14.6,32.9-26.6,53-35.7
			c37.8,21,106.6,63.9,165.4,126.2c2.8,3,7.6,3.2,10.6,0.3s3.1-7.6,0.3-10.6c-55-58.3-118.5-99.9-158.5-123
			c28-9.8,58.9-14.2,89.5-12.1c13.5,2.2,29.1-1,36.3-5.6c5.8-3.7,5.5-3.5,5.8-3.8c0.1-0.1,13.9-9.7,36.9-9.7c32.5,0,61,20.7,71,51.6
			c1.3,3.9,5.5,6.1,9.4,4.8c3.9-1.3,6.1-5.5,4.8-9.5c-12-37.1-46.3-62-85.3-62c-26.7,0-43.3,10.9-45.5,12.4l-5,3.2
			c-12.2,6.2-26.3,3.5-27.6,3.5c-62.3-4.2-129,16.6-172.6,59.9c-10.3,8.5-23.5,22.5-33.6,36.3c-20.2,27.8-33.1,61.3-24.4,94.7
			c3.6,13.8,3.5,23.6-0.3,28.4c-4.4,5.5-15.3,5.2-24,4.9c-8.3-0.3-14.9-0.5-19.3,3.7c-3.1,3-4.1,7.8-2.5,11.1l13.1,27.4l-4.1,16
			c-0.7,2.9,0.3,6,2.7,7.8l6.1,4.7l-3.7,6.4c-2,3.5-0.8,8,2.6,10.1c1.5,0.9,14,9.2,8.4,21.7c-5.2,11.4-3.5,23.8,4.4,32.2
			c7.9,8.4,19.9,10.9,31.3,6.5c18-6.9,42.2-9.2,60.2-0.4c16.3,8,24.8,22.9,30.1,39.8c0.1,0.2,5.9,18.9-2.7,43
			c-6.6,18.8,3.7,35,22,37.2c35.8,4.2,75.1,0.4,108.2-15.1c0.2-0.1,0.4-0.2,0.6-0.3c8.5-5,20.8-18.7,12.8-37.8
			c-0.1-0.1-0.1-0.2-0.2-0.4c-25.5-53-16.1-99.3-16-99.8c0.1-0.6,0.2-1.3,0.2-1.9c-0.2-3.6,6.4-5.9,10.1-6.4
			c85.4-11.5,132.8-97.4,131.9-178.5c0.7-16.3,6.2-23.6,6.8-24.3c0.4-0.4,0.7-0.8,1-1.3c11.3-14.5,17.8-31.8,18.7-50.2
			C478.8,90.4,475.6,86.8,471.5,86.6z M321.6,333.3c-28.8-49.6-73.3-95.8-132.6-137.5c-3.4-2.4-8.1-1.6-10.4,1.8
			c-2.4,3.4-1.6,8.1,1.8,10.4c56.1,39.4,98.6,82.9,126.3,129.3c-6,3.2-11.5,8.7-11.5,17.3c-1.4,7.3-8.7,54.1,17.3,108.3
			c4.5,11.1-4,17.3-6.4,18.8c-37.6,17.5-78.4,16.1-99.5,13.7c-9.2-1.6-12.9-6.6-9.6-17.8c15.4-44.3-4.6-85.8-35.1-100.8
			c-30.4-14.9-65.5-2.8-72.2-0.2c-11.8,4.5-22.5-5.6-16.6-18.4c7.2-15.8-0.5-28.8-8.3-36.2l3.7-6.5c1.9-3.3,1-7.4-1.9-9.7l-7.3-5.6
			c2.7-12.4,5-14.9,3-18.9l-11.1-23.3c12.1,0.1,30.6,2.6,40.9-10.4c7.1-8.8,8.1-22.4,3.1-41.5c-4.2-16.3-2.2-32.3,3-47
			c10.6,5.1,32,16,57.8,32.4c3.5,2.2,8.1,1.2,10.4-2.3c2.2-3.5,1.2-8.1-2.3-10.4c-21.2-13.4-43.2-25.5-59.9-33.5
			c10-19.8,24.5-36.1,34.1-45.7C215.2,140,297.1,201.9,350.7,272c1,1.4,2.1,2.7,3.1,4.1c0.2,0.3,0.4,0.5,0.6,0.8
			c8,10.8,15.4,21.7,22,32.7C360.3,322,341.3,330.1,321.6,333.3z"/>
	</g>
</g>
</svg>
