<?xml version="1.0" encoding="utf-8"?>
<!-- Generator: Adobe Illustrator 23.0.2, SVG Export Plug-In . SVG Version: 6.00 Build 0)  -->
<svg version="1.1" id="Capa_1" xmlns="http://www.w3.org/2000/svg" xmlns:xlink="http://www.w3.org/1999/xlink" x="0px" y="0px"
	 viewBox="0 0 512 512" style="enable-background:new 0 0 512 512;" xml:space="preserve">
<style type="text/css">
	.st0{fill:#F1C324;}
</style>
<g>
	<g>
		<path class="st0" d="M497.7,417.8c-1.6-11.7-6.5-23.9-4.4-28.8c8.6-19.8,2.3-33.1-9.3-38.5c-23.5-10.9-34,14.5-41.5,22.1
			c-10.6,10.6-11,37.2-15.6,41.8c-7,7-7,14.4-5.9,19.5c2.2,9.2,9.7,16.8,15.7,22.9c6.7,6.8,13,13.2,22.3,13.2
			c10.6,0,21.4-9.3,28.6-17.2c2.8-3.1,2.6-7.8-0.5-10.6c-3.1-2.8-7.8-2.6-10.6,0.5c-0.3,0.4-0.7,0.7-1,1.1
			C463.3,455.9,458.9,455,459,455c-3.6,0-8.5-5.6-14.1-11.2c-13.1-13.1-9.3-16.9-7.5-18.7c9.1-9.1,8.8-35,15.6-41.8
			c2.7-2.7,5-5.9,7.2-9c7.7-10.7,10.8-13.2,17.4-10.1c7,3.2,4.9,12.1,1.9,18.9c-4.8,11,1.6,23.8,3.3,36.7c0.5,4.1,4.3,7,8.4,6.4
			C495.4,425.7,498.3,421.9,497.7,417.8z"/>
	</g>
</g>
<g>
	<g>
		<g>
			<path class="st0" d="M413.1,134.4c0-0.1-0.1-0.2-0.1-0.2C413,134.3,413.1,134.4,413.1,134.4z"/>
			<path class="st0" d="M413,134.2c0-0.1-0.1-0.1-0.1-0.2C412.9,134,413,134.1,413,134.2z"/>
			<path class="st0" d="M413.1,134.5c0,0,0-0.1,0-0.1C413.1,134.5,413.1,134.5,413.1,134.5z"/>
			<path class="st0" d="M412.9,134C412.9,134,412.9,134,412.9,134C412.9,134,412.9,134,412.9,134z"/>
			<path class="st0" d="M413.1,134.6C413.1,134.6,413.1,134.6,413.1,134.6C413.1,134.6,413.1,134.6,413.1,134.6z"/>
			<path class="st0" d="M503.2,194.6c-4.3-12.3-21.4-14.7-24.8-15.1c-0.8-0.1,0.4,0-24.9,0c-7.6,0-10.1-5.5-10.4-6.5l-16.5-45.1
				c-1.4-3.9-5.7-5.9-9.6-4.5c-3.9,1.4-5.9,5.7-4.5,9.6c0.1,0.3,0.2,0.6,0.3,0.8c0,0,0,0,0,0c0,0.1,0,0.1,0.1,0.2c0,0,0-0.1,0-0.1
				c0.2,0.4,0.2,0.6,0.3,0.7c0,0,0,0,0,0c1.3,3.6,5.3,14.4,15.9,43.6c2.8,7.5,10.9,16.3,24.5,16.3h23.7c4.8,0.6,11.1,3,11.8,5.1
				c3.1,8.7-82.6,72.4-82.6,107.2c0,22.3,4.7,58.4-19,82.1c-26.4,26.4-49.6,85.9-75.1,97c-15,6.5-23.4,11.6-28.1,11.2
				c-11.1-0.9-53.7-52-53.7-87.9c0-10.8,1.5-30.6,2-47.7c0.1-4.1-3.1-7.6-7.3-7.7c-4.1-0.1-7.6,3.1-7.7,7.3c-0.5,17.9-2,36.1-2,48.1
				c0,32.5,26.7,71,44.6,88.9c18.1,18.1,25.8,16.6,46.7,6.8c21.7-10.1,28-9.4,61.3-63.3c9.7-15.7,19.8-32,29.9-42.1
				c27.6-27.6,23.4-65.6,23.4-92.7c0-16.1,37.2-52.3,59.4-73.9C492.1,221.9,508.3,208.9,503.2,194.6z"/>
			<path class="st0" d="M412.6,133C412.6,133,412.6,133,412.6,133L412.6,133z"/>
			<path class="st0" d="M412.6,133.1C412.6,133.1,412.6,133.1,412.6,133.1C412.6,133.1,412.6,133.1,412.6,133.1z"/>
			<path class="st0" d="M412.7,133.4c0-0.1-0.1-0.2-0.1-0.2C412.6,133.2,412.6,133.3,412.7,133.4z"/>
			<path class="st0" d="M412.6,133.1C412.6,133.1,412.6,133.1,412.6,133.1C412.6,133.1,412.6,133.1,412.6,133.1z"/>
			<path class="st0" d="M412.8,133.8c-0.1-0.2-0.1-0.3-0.1-0.4C412.7,133.5,412.8,133.6,412.8,133.8z"/>
		</g>
	</g>
</g>
<g>
	<g>
		<path class="st0" d="M416.3,99.6l-10.9-29.9c-4.6-12.5-16.6-19.7-28.1-21.1C300,36.5,306.4,33.2,276.7,38.2
			c-8,1.3-16.3,2.7-28.6,2.7c-19.1,0-30.2-27.1-39.6-36.5C195-9,153.9,12.2,127,12.2c-27.5,0-59.9,18.1-59.9,44.9
			c0,17.1-22.5,30.6-47.7,55.8c-29.7,29.7,4.6,96.4,27.5,119.2c21.9,21.9,50.6,26.4,83.1,12.9c27.6-11.5,35-5.9,46.7,5.9
			c12.8,12.8,14,33.9,32.4,52.4c2.9,2.9,6.7,10.2,8.1,28.4c0.3,4.1,3.9,7.2,8.1,6.9c4.1-0.3,7.2-3.9,6.9-8.1
			c-1.5-18.8-5.4-30.8-12.5-37.8c-16.3-16.3-16.7-36.7-32.4-52.4c-16.9-16.9-30.7-22.6-63.1-9.1c-26.7,11.1-49.2,7.9-66.7-9.6
			c-20.2-20.2-48-77.4-27.5-98c26.8-26.8,52.1-41.2,52.1-66.5c0-16.6,24.6-29.9,44.9-29.9c22.6,0,63.2-15.3,71-12
			c8,8.4,22.1,40.7,50,40.7c13.6,0,22.9-1.6,31.1-3c26.7-4.5,18.7-1.7,96.3,10.5c3,0.5,12.6,2.6,15.8,11.3l10.9,29.9
			c1.4,3.9,5.7,5.9,9.6,4.5C415.7,107.8,417.7,103.5,416.3,99.6z"/>
	</g>
</g>
</svg>
