<?xml version="1.0" encoding="utf-8"?>
<!-- Generator: Adobe Illustrator 23.0.2, SVG Export Plug-In . SVG Version: 6.00 Build 0)  -->
<svg version="1.1" id="Capa_1" xmlns="http://www.w3.org/2000/svg" xmlns:xlink="http://www.w3.org/1999/xlink" x="0px" y="0px"
	 viewBox="0 0 512 512" style="enable-background:new 0 0 512 512;" xml:space="preserve">
<style type="text/css">
	.st0{fill:#F1C324;}
</style>
<g>
	<g>
		<path class="st0" d="M502.1,117.4c-9.9-24.4-34.4-38.9-59.7-37c-0.3-1.9-1-3.7-2.1-5.4c-12.6-20-32.3-36.3-58.7-48.6
			c-3.8-1.8-8.2-0.1-10,3.6c-1.8,3.8-0.1,8.2,3.6,10c23.7,11.1,41.3,25.6,52.3,43.1c-24,17.4-22.5,16.2-23.2,17.1
			c-1.3,1.4-2,3.3-1.9,5.3c0.3,5.2,4.4,5.2,18.7,22.7c13.7,16.9,24.5,36.1,32.5,57.2c0.1,0.2,0.1,0.3,0.2,0.5c0.7,1.8,1.3,3.7,2,5.5
			c7.4,21.5,12.7,47.7,12.6,78.5l-16.8-9c-4.9-2.6-10.9,0.8-11,6.4c-0.6,24.8-4.7,52.4-12.1,77.9c-1.2,4,1.1,8.1,5.1,9.3
			c4,1.2,8.1-1.1,9.3-5.1c6.6-22.6,10.7-46.6,12.2-69.7c3.2,1.1,11.3,8.9,21.1,3c4.5-2.7,7.3-7.6,7.3-12.9
			c0-29.4-4.6-54.8-11.2-76.2C500.4,180.4,514.2,147.2,502.1,117.4z M456.7,155.2c-5.9-11.4-12.3-21.4-19.4-30.8
			c9.7-6,22.2-1.7,26.4,8.6C467,141.3,463.9,150.5,456.7,155.2z M467.5,179.4c-2.5-6.5-4.1-10.1-4.3-10.7
			c14.3-8.1,20.8-25.8,14.4-41.4c-8-19.7-32.3-26.9-49.8-14.7c-2-2.3-4.3-4.8-6.2-6.7l12.1-8.8c36.2-11.2,68.9,25.3,54.2,60
			C483.9,166.9,476.7,174.6,467.5,179.4z"/>
	</g>
</g>
<g>
	<g>
		<path class="st0" d="M213.4,167.6c-12.2,0-22.1,9.9-22.1,22.1s9.9,22.1,22.1,22.1c12.2,0,22.1-9.9,22.1-22.1
			S225.6,167.6,213.4,167.6z M213.4,196.7c-3.9,0-7.1-3.2-7.1-7.1s3.2-7.1,7.1-7.1s7.1,3.2,7.1,7.1
			C220.5,193.5,217.3,196.7,213.4,196.7z"/>
	</g>
</g>
<g>
	<g>
		<path class="st0" d="M299.8,167.6c-12.2,0-22.1,9.9-22.1,22.1c0,12.2,9.9,22.1,22.1,22.1s22.1-9.9,22.1-22.1
			S311.9,167.6,299.8,167.6z M299.8,196.7c-3.9,0-7.1-3.2-7.1-7.1s3.2-7.1,7.1-7.1s7.1,3.2,7.1,7.1
			C306.8,193.5,303.6,196.7,299.8,196.7z"/>
	</g>
</g>
<g>
	<g>
		<g>
			<path class="st0" d="M286.8,401.4C287.4,401.4,289.8,401.4,286.8,401.4L286.8,401.4z"/>
			<path class="st0" d="M388.1,193v-45.2c0-11.8-6.6-35.9-31.8-43C330.4,97.6,305.4,82,256.5,82c-48.9,0-74,15.7-99.8,22.9
				c-25.1,7-31.8,31.2-31.8,43V193c0,12.8,5,26.3,15.4,41.3c2.4,3.4,7,4.3,10.4,1.9c3.4-2.4,4.3-7,1.9-10.4
				c-8.6-12.4-12.8-23.1-12.8-32.7v-45.2c0-0.9,0.5-22.9,20.8-28.6c26.7-7.5,50.1-22.3,95.8-22.3c45.7,0,69.1,14.9,95.8,22.3
				c20.3,5.7,20.8,27.6,20.8,28.5V193c0,43.8-81,85.1-55.6,110.5c12.4,12.4,9.4,21,9.1,21.9c-0.4,0.7-1.7,3.3-3.7,7.4
				c-16.1-7.2-36.9-11.5-58.8-12.3v-25.9c5.1-0.1,6.3,0.3,8.4-0.5c1.1-0.4,26.1-10.2,26.1-31.8c0-10.4-3.7-12.8-21.8-55.2
				c-1.7-3.8-6.1-5.5-9.9-3.8c-3.8,1.7-5.5,6.1-3.8,9.9l10.4,23.2c-4.7-0.8-10.2-1.2-16.9-1.2c-6.8,0-12.4,0.4-17.2,1.2l10.3-23.3
				c1.7-3.8,0-8.2-3.8-9.9s-8.2,0-9.9,3.8c-20.3,46.4-20.2,44.8-20.3,47.3c-5.2,17.8,8.7,33.4,25.1,39.7c2.1,0.8,3.3,0.4,8.4,0.5
				v25.9c-22,0.9-42.7,5.3-58.6,12.7c-2.1-4.3-3.5-7.1-3.9-7.8c-0.4-0.9-3.3-9.5,9.1-21.9c15.4-15.4-9.6-38.4-24.6-55.1
				c-2.8-3.1-7.5-3.4-10.6-0.6c-3.1,2.8-3.4,7.5-0.6,10.6c4.3,4.8,29,30.7,25.1,34.5c-15.4,15.4-16.1,31.1-11.8,39.3
				c19.6,37.2,20.7,62.9,46.4,68.6c2.2,0.5,4.1,0.7,5.5,0.6c43.3,0,57.7,0,61.8,0c-0.3,0-0.2,0,1.5,0c0.1,0,0.1,0,0.2,0
				c14.7-0.2,25.9-11.8,31.9-25.5c0-0.1,9.8-25.3,19.6-43.8c4.4-8.4,3.4-24-11.9-39.3c-1.2-1.2,1.1-5.3,2.1-7.1
				C342.6,265.3,388.1,231.1,388.1,193z M244.8,279.5c-3.7-1.7-15.3-7.8-15.3-17.3c0-6.1,2.1-12,27-12s27,5.9,27,12
				c0,9.4-11.7,15.6-15.4,17.3H244.8z M296.5,383.3c-2.4,1.7-5.5,3.1-8.5,3.1c-0.1,0-63.3,0-63.5,0c-7-0.5-12.7-6.3-16.2-12.5
				c-3-5.3-3.4-8.7-11.7-27.2c15.9-7.3,37.4-11.4,60.4-11.4c22.4,0,43.6,4,59.4,11C305.6,370.5,305.2,377.1,296.5,383.3z"/>
		</g>
	</g>
</g>
<g>
	<g>
		<path class="st0" d="M428.7,369c-3.8-1.6-8.2,0.2-9.8,4c-11.3,27.2-26.5,50.4-45.2,69.1l-6.5-20.2c-1.9-5.7-9.4-7-13.1-2.3
			c-14.7,19.1-47,54.6-97.6,77.3c-50.6-22.6-82.8-58.1-97.6-77.3c-3.7-4.8-11.2-3.5-13.1,2.3l-6.6,20.2
			c-20.8-20.8-48.3-58.7-60.9-121c-9.8-48.5-2.3-55.6-9.9-60.1c-2.3-1.3-5-1.4-7.3-0.1l-16.8,9c0-50.9,15-101.6,46.9-141.2
			c15.3-19.1,18.8-17.6,19.1-23.2c0.1-2.5-1-4.9-3.1-6.5l-22-16c17.8-28.1,52-48.1,101.7-59.5c37-8.4,68.2-8.6,69.5-8.6
			c23.7,0.1,60.8,4.9,91.8,14.6c4,1.2,8.2-1,9.4-4.9c1.2-4-1-8.2-4.9-9.4C320,5,280.8,0.1,256.4,0c-1.4,0-34.3,0.2-72.9,9
			C129.9,21.2,92.5,43.4,72.6,75c-1.1,1.7-1.8,3.6-2.1,5.4c-44.2-4-77.3,40.4-60.5,81.8c5.8,14.2,16.7,25.5,30.5,31.8
			c-6.6,21.4-11.1,46.7-11.1,75.9c0,11.3,12.1,18.6,22.2,13.2l6.3-3.4c4.1,63,26.1,128.1,70.9,172.9c7.9,7.9,21.5,4.7,24.9-6
			l2.3-7.1c18.1,21,49.4,50.8,94.5,71c3.9,1.8,8.4,1.7,12.3,0c45.1-20.2,76.4-50,94.5-71l2.3,7.1c3.4,10.6,17,14,24.9,6
			c20.1-20.1,36.4-45,48.4-73.9C434.3,375,432.5,370.6,428.7,369z M56,155.6c-3.4-2-6.2-5.1-7.7-8.9c-6.7-16.5,12-31.9,27-21.9
			C68.1,134.5,61.7,144.6,56,155.6z M23.8,156.6c-14.4-35.5,20-71.6,56.1-58.9c1.2,0.8,10.4,7.6,11.4,8.2c-2,2.1-4.2,4.5-6.5,7.1
			c-9.1-6.6-21.3-8.4-32.1-4c-26.1,10.6-27.7,46.9-3.1,60c-2.4,5.5-3.8,9.4-4.3,10.6C35.6,175,28,166.8,23.8,156.6z"/>
	</g>
</g>
</svg>
