<?xml version="1.0" encoding="utf-8"?>
<!-- Generator: Adobe Illustrator 23.0.2, SVG Export Plug-In . SVG Version: 6.00 Build 0)  -->
<svg version="1.1" id="Capa_1" xmlns="http://www.w3.org/2000/svg" xmlns:xlink="http://www.w3.org/1999/xlink" x="0px" y="0px"
	 viewBox="0 0 512 512" style="enable-background:new 0 0 512 512;" xml:space="preserve">
<style type="text/css">
	.st0{fill:#F1C324;}
</style>
<g>
	<g>
		<path class="st0" d="M255.2,106.9c-11.4,0-20.4,11.8-20.4,26.8c0,15,8.9,26.8,20.4,26.8c11.4,0,20.4-11.8,20.4-26.8
			C275.5,118.7,266.6,106.9,255.2,106.9z M255.2,145.5c-1.8,0-5.4-4.6-5.4-11.8c0-7.2,3.5-11.8,5.4-11.8c1.8,0,5.4,4.6,5.4,11.8
			C260.5,140.9,257,145.5,255.2,145.5z"/>
	</g>
</g>
<g>
	<g>
		<path class="st0" d="M255.2,400.2c-11.4,0-20.4,11.8-20.4,26.8s8.9,26.8,20.4,26.8c11.4,0,20.4-11.8,20.4-26.8
			C275.5,411.9,266.6,400.2,255.2,400.2z M255.2,438.7c-1.8,0-5.4-4.6-5.4-11.8c0-7.2,3.5-11.8,5.4-11.8c1.8,0,5.4,4.6,5.4,11.8
			C260.5,434.1,257,438.7,255.2,438.7z"/>
	</g>
</g>
<g>
	<g>
		<path class="st0" d="M492.9,31.3l-91.1,30.1c-18.1,5.2-18.3,18-18.1,20.5h0l2.9,44.8c-7.1,7.1-29.3,29.3-37,37
			c-4.8-12.2-10.4-23.5-16.7-33.6c-2.2-3.5-6.8-4.6-10.3-2.4c-3.5,2.2-4.6,6.8-2.4,10.3c7.8,12.5,14.4,26.8,19.7,42.6
			c-48.1-7.7-123.9-7.3-169.5,0.9c4.1-12.3,8.8-23.7,15.5-35.7c29.4-53.1,75.9-72.2,116.9-30.2c2.9,3,7.6,3,10.6,0.1
			c3-2.9,3-7.6,0.1-10.6c-45.7-46.8-114-37.1-152.1,57.3l-35.8-35.8l2.9-44.8h0c0.1-2.5,0-15.3-18.1-20.5l-9.8-3.2
			c-3.9-1.3-8.2,0.8-9.5,4.8c-1.3,3.9,0.8,8.2,4.8,9.5c11.4,3.8,10,3.3,10.2,3.4c5.7,1.6,7.3,4,7.4,5.2l-3,46l-1.8,1.8
			c-16.5-16.5-62-62-77.8-77.8l36.4,12c3.9,1.3,8.2-0.8,9.5-4.8c1.3-3.9-0.8-8.2-4.8-9.5C16,30.3,19.1,31.2,18,31
			c-5.4-0.8-10.3,0.9-13.5,3.9c-3.6,3.4-5.5,10.3-3.9,15L30.7,141c3.8,13.2,12.6,18.6,20.5,18.1v0l44.8-2.9l51.6,51.6
			c-10.4,48.7-10,105.2,2.7,155.1l-36.7,36.7c0,0,0,0,0,0l-35.5,35.5c-13.1,13.1-3.8,35.7,14.8,35.7c5.3,0,10.7-2,14.8-6.1
			l57.9-57.9c4.6,10.1,9.8,19.4,15.5,27.8c1.5,2.1,3.8,3.3,6.2,3.3c5.9,0,9.6-6.7,6.2-11.7c-10.1-14.9-17.6-31.4-23.3-48.5
			c45.6,8.2,121.4,8.6,169.5,0.9c-26.1,77.1-79.9,112.5-127.6,69.4c-3.1-2.8-7.8-2.5-10.6,0.5c-2.8,3.1-2.5,7.8,0.5,10.6
			c42.9,38.8,105,30.8,143.2-53.5c14.5,14.5,49.4,49.4,59.1,59.1c6.7,6.7,14.9,6.1,14.8,6.1c18.6,0,27.8-22.6,14.8-35.7l-73.5-73.5
			c12.4-49.3,12.6-104.9,2.6-152.4c12-12,43.7-43.7,53-53l44.8,2.9v0c7.9,0.5,16.6-4.8,20.5-18.1c32-96.9,30.2-91.1,30.4-92.3
			C513.7,36,502.4,28.1,492.9,31.3z M96.2,141.2l-46,3c-1.2-0.1-3.6-1.8-5.2-7.4c-0.1-0.3,1.6,4.9-24.9-75.2L98,139.4L96.2,141.2z
			 M352.6,238.2c3.2,26.3,3.4,54.3,0.1,82.1l-32.2-41.1L352.6,238.2z M242.1,340.4c-30.3-0.7-58-3.4-76.4-7.4l35.1-42L242.1,340.4z
			 M166.3,226.1c18.2-3.9,45.4-6.6,75.2-7.3l-40.6,48.7L166.3,226.1z M210.6,279.2l46.9-56.1l44,56.1l-44,56.1L210.6,279.2z
			 M273.2,218.8c27.2,0.6,52.4,2.9,70.6,6.3l-32.9,42L273.2,218.8z M311,291.4l33.4,42.6c-18.4,3.5-44,5.7-71.7,6.4L311,291.4z
			 M165.4,197.8c43.7-9.7,130.9-10.3,179.2-1.1c0,0.1,1.9,6.9,3.4,13.9c-50-9.7-139.6-9.2-185.9,1.1
			C163.2,206.6,164.1,202.9,165.4,197.8z M191.1,279.2l-33.6,40.2c-3.1-26.6-3.1-54.2,0.1-80.3L191.1,279.2z M129.5,168.5
			l-19.7-19.7l8.3-8.3l19.7,19.7L129.5,168.5z M140.1,179.1l8.3-8.3l7.2,7.2c-1.4,4.2-2.7,8.4-3.9,12.8L140.1,179.1z M97,454
			c-3.7,3.7-10.1,1-10.1-4.2c0-4.3,1.4-3,31.9-34.3l8.3,8.3L97,454z M137.8,413.3l-8.3-8.3l25.6-25.6c1.4,4.2,2.8,8.3,4.3,12.3
			L137.8,413.3z M344.7,362.5c-48.3,9.2-135.5,8.6-179.3-1.1c-1.2-4.6-2.3-9.2-3.3-13.9c46.4,10.3,136,10.8,185.9,1.1
			C346.9,353.6,345.8,358.1,344.7,362.5z M393.2,415.6l30.2,30.2c2.3,2.3,2.3,6,0,8.3c-2.3,2.3-6,2.3-8.3,0l-30.2-30.2L393.2,415.6z
			 M382.6,404.9l-8.3,8.3l-22.8-22.8c1.5-4,2.9-8.2,4.3-12.4L382.6,404.9z M359,192.1c-1-3.6-2.6-9.1-3.8-12.8l8.5-8.5l8.3,8.3
			L359,192.1z M382.6,168.5l-8.3-8.3l19.7-19.7c2.9,2.9,5.4,5.4,8.3,8.3L382.6,168.5z M403.4,128.8l-1.8-1.8c-3.1-48.6-3-46-3-46.4
			c0,0,1-2.9,7.5-4.8c0.3-0.1-2.6,0.9,75.2-24.9L403.4,128.8z M467,136.7c-1.6,5.7-4,7.3-5.2,7.4l-46-3l-1.8-1.8l77.8-77.8
			C465.4,141.6,467.1,136.4,467,136.7z"/>
	</g>
</g>
</svg>
